<?xml version="1.0" encoding="iso-8859-1"?>
<!-- Generator: Adobe Illustrator 19.0.0, SVG Export Plug-In . SVG Version: 6.00 Build 0)  -->
<svg version="1.1" id="Capa_1" xmlns="http://www.w3.org/2000/svg" xmlns:xlink="http://www.w3.org/1999/xlink" x="0px" y="0px"
	 viewBox="0 0 501.333 501.333" style="enable-background:new 0 0 501.333 501.333;" xml:space="preserve">
<g>
	<g>
		<g>
			<path d="M394.667,240h-32c-5.891,0-10.667-4.776-10.667-10.667v-42.667C352,159.552,336.448,144,309.333,144h-32V58.987
				c4.491-0.32,12.459-0.32,21.333-0.32c5.891,0,10.667-4.776,10.667-10.667c0-5.891-4.776-10.667-10.667-10.667
				c-31.915,0-42.667,0-42.667,21.333V144h-32c-20.64,0-32,0-32,21.333v64c0,5.891-4.776,10.667-10.667,10.667h-32
				c-51.979,0-92.928,35.2-103.755,85.333H21.333v-42.667c0-5.891-4.776-10.667-10.667-10.667S0,276.776,0,282.667v138.667
				C0,427.224,4.776,432,10.667,432s10.667-4.776,10.667-10.667v-32h27.072C62.4,433.685,101.12,464,149.333,464h245.333
				c60.8,0,106.667-48.149,106.667-112S455.477,240,394.667,240z M21.333,368v-21.333h21.579c-0.075,1.781-0.245,3.531-0.245,5.333
				c0.021,5.35,0.377,10.694,1.067,16H21.333z M332.629,240h-55.296v-42.667h53.333v32C330.702,232.975,331.366,236.584,332.629,240
				z M394.667,442.667H149.333C100.683,442.667,64,403.691,64,352c0-51.691,36.683-90.667,85.333-90.667h32
				c17.673,0,32-14.327,32-32v-63.904c2.795-0.096,6.656-0.096,10.667-0.096h85.333c11.072,0,17.205,3.2,19.808,10.667h-62.475
				c-5.891,0-10.667,4.776-10.667,10.667v64c0,5.891,4.776,10.667,10.667,10.667h128C443.317,261.333,480,300.309,480,352
				C480,403.691,443.317,442.667,394.667,442.667z"/>
			<path d="M165.333,314.667C144.715,314.667,128,331.381,128,352c0,20.619,16.715,37.333,37.333,37.333
				s37.333-16.715,37.333-37.333C202.667,331.381,185.952,314.667,165.333,314.667z M165.333,368c-8.837,0-16-7.163-16-16
				c0-8.837,7.163-16,16-16s16,7.163,16,16C181.333,360.837,174.17,368,165.333,368z"/>
			<path d="M282.667,314.667c-20.619,0-37.333,16.715-37.333,37.333c0,20.619,16.715,37.333,37.333,37.333
				C303.285,389.333,320,372.619,320,352C320,331.381,303.285,314.667,282.667,314.667z M282.667,368c-8.837,0-16-7.163-16-16
				c0-8.837,7.163-16,16-16c8.837,0,16,7.163,16,16C298.667,360.837,291.503,368,282.667,368z"/>
			<path d="M400,314.667c-20.619,0-37.333,16.715-37.333,37.333c0,20.619,16.715,37.333,37.333,37.333
				c20.619,0,37.333-16.715,37.333-37.333C437.333,331.381,420.619,314.667,400,314.667z M400,368c-8.837,0-16-7.163-16-16
				c0-8.837,7.163-16,16-16s16,7.163,16,16C416,360.837,408.837,368,400,368z"/>
		</g>
	</g>
</g>
<g>
</g>
<g>
</g>
<g>
</g>
<g>
</g>
<g>
</g>
<g>
</g>
<g>
</g>
<g>
</g>
<g>
</g>
<g>
</g>
<g>
</g>
<g>
</g>
<g>
</g>
<g>
</g>
<g>
</g>
</svg>
